# xmcd CD database file
#
# Track frame offsets:
#	150
#	39177
#	74227
#	85982
#	119916
#	150282
#	177197
#
# Disc length: 2939 seconds
#
# Revision: 0
# Processed by: cddbd v1.5.2PL0 Copyright (c) Steve Scherf et al.
# Submitted via: CDex 1.70beta2
#
DISCID=5a0b7907
DTITLE=Stephane Trepp - Les 13 Cicatrices
DYEAR=2002
DGENRE=Jazz
TTITLE0=Ma Memoire Part A L'ouest
TTITLE1=Lost Car
TTITLE2=Sous Le Crane D'un Sourd
TTITLE3=Les Actes
TTITLE4=Inquietudes
TTITLE5=Un Pont Sous Le Eaux
TTITLE6=Les 13 Cicatrices
EXTD=YEAR: 2002
EXTT0=
EXTT1=
EXTT2=
EXTT3=
EXTT4=
EXTT5=
EXTT6=
PLAYORDER=
